HIERARCHY
ROOT RootJoint
{
    OFFSET   0.000000   0.000000   0.000000
    CHANNELS 6 Xposition Yposition Zposition Xrotation Yrotation Zrotation
    JOINT pelvis_lowerback
    {
        OFFSET   0.000000   0.093605   0.000000
        CHANNELS 3 Xrotation Yrotation Zrotation
        JOINT lowerback_torso
        {
            OFFSET   0.000000   0.100000   0.000000
            CHANNELS 3 Xrotation Yrotation Zrotation
            JOINT torso_head
            {
                OFFSET   0.000000   0.282350   0.000000
                CHANNELS 3 Xrotation Yrotation Zrotation
                End Site
                {
                    OFFSET   0.000000   0.192650   0.000000
                }
            }
            JOINT rTorso_Clavicle
            {
                OFFSET  -0.001000   0.157500   0.000000
                CHANNELS 3 Xrotation Yrotation Zrotation
                JOINT rShoulder
                {
                    OFFSET  -0.117647   0.000000   0.000000
                    CHANNELS 3 Xrotation Yrotation Zrotation
                    JOINT rElbow
                    {
                        OFFSET  -0.245000   0.000000   0.000000
                        CHANNELS 3 Xrotation Yrotation Zrotation
                        JOINT rWrist
                        {
                            OFFSET  -0.240000   0.000000   0.000000
                            CHANNELS 3 Xrotation Yrotation Zrotation
                            End Site
                            {
                                OFFSET  -0.116353  -0.002500   0.000000
                            }
                        }
                    }
                }
            }
            JOINT lTorso_Clavicle
            {
                OFFSET   0.001000   0.157500   0.000000
                CHANNELS 3 Xrotation Yrotation Zrotation
                JOINT lShoulder
                {
                    OFFSET   0.117647   0.000000   0.000000
                    CHANNELS 3 Xrotation Yrotation Zrotation
                    JOINT lElbow
                    {
                        OFFSET   0.245000   0.000000   0.000000
                        CHANNELS 3 Xrotation Yrotation Zrotation
                        JOINT lWrist
                        {
                            OFFSET   0.240000   0.000000   0.000000
                            CHANNELS 3 Xrotation Yrotation Zrotation
                            End Site
                            {
                                OFFSET   0.116353  -0.002500   0.000000
                            }
                        }
                    }
                }
            }
        }
    }
    JOINT rHip
    {
        OFFSET  -0.100000  -0.051395   0.000000
        CHANNELS 3 Xrotation Yrotation Zrotation
        JOINT rKnee
        {
            OFFSET   0.000000  -0.410000   0.000000
            CHANNELS 3 Xrotation Yrotation Zrotation
            JOINT rAnkle
            {
                OFFSET   0.000000  -0.390000   0.000000
                CHANNELS 3 Xrotation Yrotation Zrotation
                JOINT rToeJoint
                {
                    OFFSET   0.000000  -0.050000   0.130000
                    CHANNELS 3 Xrotation Yrotation Zrotation
                    End Site
                    {
                        OFFSET  -0.010000   0.002000   0.060000
                    }
                }
            }
        }
    }
    JOINT lHip
    {
        OFFSET   0.100000  -0.051395   0.000000
        CHANNELS 3 Xrotation Yrotation Zrotation
        JOINT lKnee
        {
            OFFSET   0.000000  -0.410000   0.000000
            CHANNELS 3 Xrotation Yrotation Zrotation
            JOINT lAnkle
            {
                OFFSET   0.000000  -0.390000   0.000000
                CHANNELS 3 Xrotation Yrotation Zrotation
                JOINT lToeJoint
                {
                    OFFSET   0.000000  -0.050000   0.130000
                    CHANNELS 3 Xrotation Yrotation Zrotation
                    End Site
                    {
                        OFFSET   0.010000   0.002000   0.060000
                    }
                }
            }
        }
    }
}
MOTION
Frames: 11
Frame Time:   0.008333
 -3.395764   0.472326   4.876231  57.698603 -44.369329  48.350208  48.799531  -0.139791  -1.912063  -3.961722   1.494553  -7.011903  -4.592451   2.195345  -5.757910  -8.654082  44.673107  -0.035944 -12.830410  34.812839  20.170023   0.000559   2.263061   0.000010 -10.304427   2.351979 -83.983584  -0.219341 -45.001478   9.191118  -1.501668 -27.084694 -13.409419   0.000014 -13.579668  -0.000454  -3.885459  -5.167134  80.769784 -33.781957   1.401487 -10.439006 116.942221  -0.000507   0.000545   0.786318   9.470062  -0.803422  -2.594585   0.000111   0.000075 -28.995396  -1.762646  -4.356819 112.075491   0.000049  -0.000127  -4.148502  -1.864774  -0.772938  -3.856753  -0.000157   0.000148
 -3.394901   0.472663   4.875258  57.811685 -44.369356  48.529762  48.830785   0.000288  -1.960786  -4.050673   1.538673  -7.093998  -4.501039   2.148305  -5.842676  -8.515815  44.683324  -0.132405 -12.910463  34.712149  20.024278   0.000621   2.106978   0.000005 -10.312649   2.357003 -83.853314  -0.324648 -45.000669   8.894597  -1.439705 -26.944320 -13.332914   0.000079 -13.744632  -0.000630  -3.642635  -5.326469  80.399143 -34.131867   1.527542 -10.474659 117.253468  -0.000479   0.000497   0.725169   9.337867  -0.804751  -2.632707   0.000093   0.000097 -29.185377  -1.716352  -4.374207 111.915946   0.000100  -0.000194  -3.942722  -1.766884  -0.637633  -3.789218  -0.000241   0.000205
 -3.393974   0.472626   4.874232  57.816389 -44.456931  48.596500  48.903767   0.156844  -1.985991  -4.095792   1.601398  -7.166227  -4.413420   2.104273  -5.922440  -8.379421  44.693290  -0.231051 -12.974242  34.605022  19.877413   0.000703   1.952002   0.000001 -10.322158   2.358766 -83.697908  -0.416922 -44.999892   8.606701  -1.377243 -26.798804 -13.272019   0.000109 -13.896580  -0.000744  -3.382098  -5.511341  80.009852 -34.422909   1.644891 -10.515930 117.617398  -0.000522   0.000358   0.669698   9.213936  -0.806482  -2.667459   0.000083   0.000120 -29.453639  -1.658303  -4.243125 111.714969   0.000054  -0.000459  -3.739745  -1.676752  -0.511700  -3.671416  -0.000345   0.000424
 -3.393067   0.473112   4.873150  57.818755 -44.446640  48.723626  49.009931   0.272353  -2.024837  -4.166159   1.639122  -7.238349  -4.350335   2.063046  -5.999900  -8.293946  44.699378  -0.311935 -13.038238  34.473228  19.697575   0.000766   1.789850  -0.000001 -10.331670   2.363925 -83.550602  -0.513766 -44.999239   8.336086  -1.322216 -26.665944 -13.205473   0.000191 -14.039515  -0.000811  -3.164420  -5.731389  79.602641 -34.823062   1.788252 -10.615923 117.934290  -0.000415   0.000272   0.617191   9.098113  -0.808026  -2.707136   0.000056   0.000139 -29.615630  -1.666035  -4.307991 111.546284   0.000120  -0.000479  -3.574645  -1.586694  -0.392640  -3.664313  -0.000288   0.000348
 -3.392226   0.473606   4.871960  57.785763 -44.432176  48.786602  49.119040   0.399365  -2.039635  -4.211077   1.685028  -7.295641  -4.284043   2.025068  -6.071431  -8.227510  44.704054  -0.389282 -13.099150  34.335372  19.515986   0.000814   1.630121  -0.000003 -10.341036   2.366559 -83.403003  -0.600660 -44.998646   8.079721  -1.267438 -26.528423 -13.149133   0.000272 -14.167687  -0.000832  -2.964932  -5.980982  79.194726 -35.209828   1.917309 -10.672876 118.235437  -0.000247   0.000224   0.567149   8.990041  -0.809388  -2.748056   0.000023   0.000149 -29.767696  -1.667129  -4.322865 111.390972   0.000099  -0.000496  -3.408869  -1.503657  -0.281831  -3.609640  -0.000292   0.000354
 -3.391445   0.474072   4.870686  57.710922 -44.408298  48.805665  49.230665   0.519605  -2.044026  -4.243018   1.729553  -7.341155  -4.219683   1.989575  -6.136528  -8.176676  44.707604  -0.457305 -13.159517  34.194341  19.339802   0.000848   1.474495  -0.000004 -10.350087   2.365961 -83.256118  -0.678175 -44.998087   7.835696  -1.213676 -26.390195 -13.101987   0.000338 -14.283519  -0.000831  -2.786290  -6.245604  78.786197 -35.577333   2.039538 -10.724396 118.522542  -0.000050   0.000175   0.520431   8.889262  -0.810742  -2.786502  -0.000012   0.000153 -29.909047  -1.664864  -4.320372 111.242729   0.000030  -0.000512  -3.254059  -1.426052  -0.178861  -3.557713  -0.000272   0.000358
 -3.390724   0.474499   4.869334  57.596734 -44.372796  48.789060  49.342610   0.629991  -2.041506  -4.266509   1.769067  -7.377834  -4.158869   1.956400  -6.196544  -8.139938  44.710151  -0.514037 -13.221193  34.051743  19.172041   0.000867   1.323525  -0.000004 -10.358666   2.361581 -83.110878  -0.747712 -44.997554   7.603242  -1.162292 -26.256006 -13.063406   0.000386 -14.389929  -0.000820  -2.640091  -6.513436  78.377765 -35.925006   2.157258 -10.776565 118.793317   0.000159   0.000126   0.476853   8.795149  -0.812123  -2.822231  -0.000046   0.000153 -30.042182  -1.661348  -4.308309 111.102837  -0.000063  -0.000525  -3.109808  -1.353450  -0.083074  -3.510241  -0.000235   0.000356
 -3.389829   0.475010   4.867894  57.536779 -44.303598  48.779719  49.437843   0.814269  -2.011714  -4.367568   1.883279  -7.409207  -4.049000   1.924617  -6.280715  -7.972068  44.721991  -0.627701 -13.268300  33.790319  18.925747   0.000933   1.155666  -0.000000 -10.371404   2.378465 -82.941846  -0.936622 -45.358868   7.186646  -1.044963 -25.947617 -12.944191   0.000347 -14.526327  -0.000945  -2.673584  -6.660940  78.000924 -36.434627   2.371307 -10.818327 119.228620   0.000686  -0.000161   0.364439   8.700202  -0.766313  -2.859560  -0.000082   0.000174 -30.256383  -1.659686  -4.262578 110.939137  -0.000161  -0.000558  -2.865296  -1.256711   0.014443  -3.449672  -0.000208   0.000388
 -3.389032   0.475521   4.866306  57.448861 -44.224265  48.734228  49.567665   0.941043  -1.960669  -4.473370   1.933927  -7.459156  -3.975451   1.906179  -6.354204  -7.689713  44.741244  -0.890380 -13.208505  33.686754  18.631154   0.000879   1.049981   0.000249 -10.650265   2.347025 -82.801812  -1.123136 -45.284331   6.807608  -0.981793 -25.859276 -12.827211   0.000331 -14.717005  -0.001206  -2.430742  -6.863650  77.443513 -36.968097   2.603686 -10.863115 119.700568   0.001274  -0.000521   0.260061   8.610607  -0.724221  -2.903262  -0.000131   0.000207 -30.466399  -1.671046  -4.187613 110.771841  -0.000274  -0.000617  -2.636976  -1.165396   0.105525  -3.386607  -0.000172   0.000428
 -3.388315   0.476027   4.864664  57.309831 -44.139123  48.629101  49.706690   1.063756  -1.892685  -4.559229   1.990545  -7.474891  -3.896627   1.883766  -6.429814  -7.539305  44.751255  -1.017716 -13.252220  33.521524  18.397840   0.000867   0.926213   0.000262 -10.606521   2.357990 -82.652895  -1.288532 -45.224365   6.446894  -0.907966 -25.724940 -12.726690   0.000366 -14.887155  -0.001321  -2.166032  -7.132244  76.883478 -37.486658   2.833962 -10.919878 120.162297   0.001817  -0.000930   0.163257   8.526773  -0.685305  -2.944633  -0.000177   0.000238 -30.655423  -1.691810  -4.091141 110.610178  -0.000407  -0.000666  -2.424304  -1.079391   0.190404  -3.329010  -0.000123   0.000451
 -3.387631   0.476561   4.862998  57.137816 -44.077358  48.474428  49.834318   1.143246  -1.803083  -4.632050   1.998087  -7.461838  -3.811119   1.865942  -6.503029  -7.484408  45.008401  -1.058443 -13.306376  33.238221  18.170487   0.000935   0.757259   0.000148 -10.574084   2.361872 -82.486103  -1.436299 -45.176045   6.100645  -0.822442 -25.516199 -12.639027   0.000375 -15.015892  -0.001285  -2.102350  -7.384783  76.337951 -37.983607   3.063777 -10.978946 120.599034   0.002201  -0.001345   0.073278   8.448008  -0.649550  -2.982735  -0.000211   0.000265 -30.808307  -1.710539  -3.964064 110.457969  -0.000529  -0.000700  -2.226120  -0.999099   0.269025  -3.276565  -0.000073   0.000459
